HIERARCHY
ROOT Hips
{
	OFFSET 0.000000 0.000000 0.000000
	CHANNELS 6 Xposition Yposition Zposition Zrotation Yrotation Xrotation 
	JOINT LHipJoint
	{
		OFFSET 0.000000 0.000000 0.000000
		CHANNELS 3 Zrotation Yrotation Xrotation
		JOINT LeftUpLeg
		{
			OFFSET 1.363060 -1.794630 0.839290
			CHANNELS 3 Zrotation Yrotation Xrotation
			JOINT LeftLeg
			{
				OFFSET 2.448110 -6.726130 0.000000
				CHANNELS 3 Zrotation Yrotation Xrotation
				JOINT LeftFoot
				{
					OFFSET 2.562200 -7.039590 0.000000
					CHANNELS 3 Zrotation Yrotation Xrotation
					JOINT LeftToeBase
					{
						OFFSET 0.157640 -0.433110 2.322550
						CHANNELS 3 Zrotation Yrotation Xrotation
						End Site
						{
							OFFSET 0.000000 0.000000 0.000000
						}
					}
				}
			}
		}
	}
	JOINT RHipJoint
	{
		OFFSET 0.000000 0.000000 0.000000
		CHANNELS 3 Zrotation Yrotation Xrotation
		JOINT RightUpLeg
		{
			OFFSET -1.305520 -1.794630 0.839290
			CHANNELS 3 Zrotation Yrotation Xrotation
			JOINT RightLeg
			{
				OFFSET -2.542530 -6.985550 0.000000
				CHANNELS 3 Zrotation Yrotation Xrotation
				JOINT RightFoot
				{
					OFFSET -2.568260 -7.056230 0.000000
					CHANNELS 3 Zrotation Yrotation Xrotation
					JOINT RightToeBase
					{
						OFFSET -0.164730 -0.452590 2.363150
						CHANNELS 3 Zrotation Yrotation Xrotation
						End Site
						{
							OFFSET 0.000000 0.000000 0.000000
						}
					}
				}
			}
		}
	}
	JOINT LowerBack
	{
		OFFSET 0.000000 0.000000 0.000000
		CHANNELS 3 Zrotation Yrotation Xrotation
		JOINT Spine
		{
			OFFSET 0.028270 2.035590 -0.193380
			CHANNELS 3 Zrotation Yrotation Xrotation
			JOINT Spine1
			{
				OFFSET 0.056720 2.048850 -0.042750
				CHANNELS 3 Zrotation Yrotation Xrotation
				JOINT Neck
				{
					OFFSET 0.000000 0.000000 0.000000
					CHANNELS 3 Zrotation Yrotation Xrotation
					JOINT Neck1
					{
						OFFSET -0.054170 1.746240 0.172020
						CHANNELS 3 Zrotation Yrotation Xrotation
						JOINT Head
						{
							OFFSET 0.104070 1.761360 -0.123970
							CHANNELS 3 Zrotation Yrotation Xrotation
							End Site
							{
								OFFSET 0.000000 0.000000 0.000000
							}
						}
					}
				}
				JOINT LeftShoulder
				{
					OFFSET 0.000000 0.000000 0.000000
					CHANNELS 3 Zrotation Yrotation Xrotation
					JOINT LeftArm
					{
						OFFSET 3.362410 1.200890 -0.311210
						CHANNELS 3 Zrotation Yrotation Xrotation
						JOINT LeftForeArm
						{
							OFFSET 4.983000 -0.000000 -0.000000
							CHANNELS 3 Zrotation Yrotation Xrotation
							JOINT LeftHand
							{
								OFFSET 3.483560 -0.000000 -0.000000
								CHANNELS 3 Zrotation Yrotation Xrotation
								JOINT LeftFingerBase
								{
									OFFSET 0.000000 0.000000 0.000000
									CHANNELS 3 Zrotation Yrotation Xrotation
									JOINT LeftHandIndex1
									{
										OFFSET 0.715260 -0.000000 -0.000000
										CHANNELS 3 Zrotation Yrotation Xrotation
										End Site
										{
											OFFSET 0.000000 0.000000 0.000000
										}
									}
								}
								JOINT LThumb
								{
									OFFSET 0.000000 0.000000 0.000000
									CHANNELS 3 Zrotation Yrotation Xrotation
									End Site
									{
										OFFSET 0.000000 0.000000 0.000000
									}
								}
							}
						}
					}
				}
				JOINT RightShoulder
				{
					OFFSET 0.000000 0.000000 0.000000
					CHANNELS 3 Zrotation Yrotation Xrotation
					JOINT RightArm
					{
						OFFSET -3.136600 1.374050 -0.404650
						CHANNELS 3 Zrotation Yrotation Xrotation
						JOINT RightForeArm
						{
							OFFSET -5.241900 -0.000000 -0.000000
							CHANNELS 3 Zrotation Yrotation Xrotation
							JOINT RightHand
							{
								OFFSET -3.444170 -0.000000 -0.000000
								CHANNELS 3 Zrotation Yrotation Xrotation
								JOINT RightFingerBase
								{
									OFFSET 0.000000 0.000000 0.000000
									CHANNELS 3 Zrotation Yrotation Xrotation
									JOINT RightHandIndex1
									{
										OFFSET -0.622530 -0.000000 -0.000000
										CHANNELS 3 Zrotation Yrotation Xrotation
										End Site
										{
											OFFSET 0.000000 0.000000 0.000000
										}
									}
								}
								JOINT RThumb
								{
									OFFSET 0.000000 0.000000 0.000000
									CHANNELS 3 Zrotation Yrotation Xrotation
									End Site
									{
										OFFSET 0.000000 0.000000 0.000000
									}
								}
							}
						}
					}
				}
			}
		}
	}
}
MOTION
Frames: 7
Frame Time: 0.008333
23.726562 15.912128 1.375118 176.707582 -85.997615 -158.608142 -9.269626 -1.113502 4.481737 -9.934780 -5.092674 -61.233763 -0.999579 2.174492 45.701738 1.416507 5.205681 -8.837598 0.136100 0.000000 -18.267200 10.152517 -6.058671 1.288513 4.769761 -4.160716 9.039126 1.388776 -1.795178 18.041373 0.490789 8.985173 15.869576 3.277300 0.000001 -90.375100 -13.315435 3.793304 -7.086007 -3.601238 4.759089 -4.880201 -4.484884 4.560817 -0.798274 3.524209 -0.758344 -8.481350 -1.515632 -0.102836 -0.284588 0.000000 0.000000 0.000000 -4.738213 20.822622 2.344120 -31.516891 23.786637 -4.541480 -5.067781 -2.338954 -0.022729 8.494199 8.074532 0.612092 -0.163348 -0.006914 0.000000 0.000000 0.000000 0.000000 0.000000 0.000000 0.000000 -0.052786 7.129041 0.387185 47.101944 53.159364 23.286220 0.810866 72.480743 -0.005676 -0.210917 7.081610 -0.010064 -0.045333 -0.531881 0.000000 0.000000 0.000000 0.000000 0.000000 0.000000 0.000000 
23.534134 15.909911 1.389475 174.412959 -85.932581 -156.866467 -9.245536 -1.112484 4.099271 -10.727760 -4.386084 -60.256380 -0.988453 2.215704 46.817120 1.430502 5.269096 -9.459588 0.035800 -0.000000 -18.114100 10.446721 -6.094101 1.116371 3.832246 -4.863105 7.670642 1.078770 -2.122676 21.986621 0.341513 9.888437 18.451066 4.119400 0.000000 -89.725100 -13.419623 3.693128 -6.543372 -3.659203 4.648444 -4.814083 -4.769698 4.462483 -0.951318 4.009290 -0.343798 -8.513816 -1.769220 -0.121718 -0.316682 0.000000 0.000000 0.000000 -5.557319 20.414023 2.460987 -32.354039 22.738746 -3.491891 -5.148482 -2.868075 -0.023765 8.333176 8.635518 0.640604 -0.149162 0.004150 -0.000000 0.000000 0.000000 0.000000 0.000000 0.000000 0.000000 1.322956 7.860807 0.577837 49.476012 51.509394 24.575386 0.877724 71.731283 -0.006299 -0.584597 7.148251 -0.036524 -0.024953 -0.526033 0.000000 0.000000 0.000000 0.000000 0.000000 0.000000 0.000000 
23.347552 15.907522 1.405325 171.537911 -85.931294 -154.555300 -9.179569 -1.101380 3.710482 -11.576129 -3.727784 -59.165081 -0.994230 2.229734 47.806419 1.439753 5.280799 -10.199732 -0.081101 -0.000000 -17.971400 10.808733 -6.084169 0.915059 2.795448 -5.724035 6.084352 0.774116 -2.414668 26.211213 0.143788 10.470776 20.779918 4.854901 -0.000000 -87.922400 -13.500921 3.564894 -5.944443 -3.705726 4.507476 -4.737807 -5.046048 4.334188 -1.120376 4.473775 0.084170 -8.517652 -2.033795 -0.141774 -0.343082 0.000000 0.000000 0.000000 -6.274281 19.967938 2.603657 -33.393331 21.428229 -2.469097 -5.210228 -3.284254 -0.024038 8.267322 8.985961 0.659528 -0.134509 0.016213 -0.000000 0.000000 0.000000 0.000000 0.000000 0.000000 0.000000 2.722375 8.582926 0.722342 51.855763 49.644629 25.718452 0.941155 70.746893 -0.007994 -1.101683 7.295074 -0.073899 -0.003555 -0.520522 -0.000000 0.000000 0.000000 0.000000 0.000000 0.000000 0.000000 
23.166516 15.905135 1.422573 168.224401 -85.972137 -151.799637 -9.069230 -1.067862 3.330086 -12.455348 -3.131024 -57.989706 -1.014523 2.221225 48.670953 1.446185 5.243606 -11.041734 -0.210700 0.000000 -17.829400 11.222572 -6.020450 0.691598 1.710724 -6.676991 4.312401 0.486858 -2.676499 30.651227 -0.091527 10.477748 22.715601 5.290100 -0.000001 -85.163400 -13.551803 3.416869 -5.314882 -3.739846 4.344494 -4.654433 -5.309002 4.183318 -1.296536 4.913720 0.511178 -8.491408 -2.304555 -0.162613 -0.362765 0.000000 0.000000 0.000000 -6.874633 19.494875 2.762985 -34.637311 19.814637 -1.482329 -5.248356 -3.548596 -0.023452 8.311410 9.079752 0.667966 -0.119190 0.027964 -0.000000 0.000000 0.000000 0.000000 0.000000 0.000000 0.000000 4.127995 9.264575 0.817905 54.210606 47.588038 26.681610 1.000199 69.480171 -0.010767 -1.764470 7.541054 -0.124293 0.018052 -0.515390 -0.000000 0.000000 0.000000 0.000000 0.000000 0.000000 0.000000 
22.990442 15.903246 1.441192 164.655909 -86.029367 -148.770048 -8.918591 -1.001547 2.971820 -13.338422 -2.601736 -56.759640 -1.047419 2.197028 49.411213 1.451922 5.163734 -11.963450 -0.348200 -0.000000 -17.680400 11.666476 -5.897825 0.451776 0.632668 -7.659703 2.387913 0.219256 -2.919820 35.240772 -0.352984 9.703662 24.135560 5.248400 0.000001 -81.754900 -13.565415 3.260228 -4.680213 -3.761223 4.170831 -4.568385 -5.554949 4.020102 -1.474995 5.325378 0.930375 -8.430494 -2.575948 -0.183821 -0.373590 0.000000 0.000000 0.000000 -7.357854 18.984478 2.927186 -36.075094 17.891999 -0.561458 -5.259425 -3.623576 -0.021974 8.473978 8.864132 0.662716 -0.103155 0.037940 -0.000000 0.000000 0.000000 0.000000 0.000000 0.000000 0.000000 5.517377 9.884653 0.867338 56.519735 45.354443 27.421453 1.053506 67.893886 -0.014452 -2.554945 7.896711 -0.189312 0.038780 -0.510424 -0.000000 0.000000 0.000000 0.000000 0.000000 0.000000 0.000000 
22.818462 15.902501 1.461077 160.979019 -86.083873 -145.599384 -8.734897 -0.897476 2.646732 -14.203594 -2.145855 -55.500257 -1.091350 2.163531 50.024547 1.459356 5.052759 -12.937914 -0.488400 -0.000000 -17.518501 12.120635 -5.715511 0.201487 -0.393751 -8.622659 0.336169 -0.033868 -3.157227 39.915454 -0.633459 8.045813 24.934839 4.630500 0.000000 -77.957300 -13.541684 3.103937 -4.063295 -3.771385 3.996150 -4.482539 -5.782408 3.853354 -1.646514 5.710740 1.329385 -8.336788 -2.842580 -0.204894 -0.375297 0.000000 0.000000 0.000000 -7.733615 18.436326 3.083472 -37.681775 15.645830 0.308021 -5.241681 -3.480597 -0.019696 8.751435 8.306137 0.639073 -0.086518 0.044874 -0.000000 0.000000 0.000000 0.000000 0.000000 0.000000 0.000000 6.877253 10.417449 0.879006 58.757735 42.978192 27.898880 1.099313 65.959226 -0.018831 -3.450381 8.364137 -0.270862 0.057651 -0.505145 -0.000000 0.000000 0.000000 0.000000 0.000000 0.000000 0.000000 
22.650157 15.903773 1.482165 157.310769 -86.123304 -142.396136 -8.528341 -0.756593 2.361935 -15.033719 -1.766951 -54.232262 -1.144839 2.126122 50.506281 1.470577 4.925331 -13.934823 -0.626700 0.000000 -17.340200 12.566808 -5.475890 -0.052566 -1.330859 -9.524308 -1.823690 -0.280564 -3.398476 44.609486 -0.930425 5.527917 25.027969 3.452200 0.000001 -73.942900 -13.483528 2.955134 -3.483115 -3.772574 3.828479 -4.399376 -5.991902 3.690484 -1.803482 6.073579 1.697866 -8.213796 -3.099012 -0.225300 -0.368083 0.000000 0.000000 0.000000 -8.021671 17.846190 3.219872 -39.421766 13.075797 1.149549 -5.195331 -3.103511 -0.016835 9.131246 7.389794 0.591233 -0.069656 0.047977 -0.000000 0.000000 0.000000 0.000000 0.000000 0.000000 0.000000 8.194561 10.842607 0.864404 60.908848 40.495860 28.072534 1.135489 63.660261 -0.023637 -4.423088 8.933339 -0.369844 0.073860 -0.498852 -0.000000 0.000000 0.000000 0.000000 0.000000 0.000000 0.000000 
